# xmcd
#
# Track frame offsets:
#	183
#	11273
#	23733
#	35265
#	47375
#	60990
#	73593
#	85123
#	96423
#	106128
#	118075
#	131143
#	143110
#	156108
#	168083
#	181590
#	194213
#	206335
#	219535
#	234183
#
# Disc length: 3285 seconds
#
# Revision: 1
# Processed by: cddbd v1.5.1PL0 Copyright (c) Steve Scherf et al.
# Submitted via: audiograbber 1.83.01
#
DISCID=010cd314
DTITLE=Various Artist - Rythm and blues. Best hits 60's Disc 1
DYEAR=1900
DGENRE=
TTITLE0=Land of a thousand Dances
TTITLE1=My Girl
TTITLE2=Hold on Im comin
TTITLE3=Smoke gets in your eyes
TTITLE4=Spanish Harlem
TTITLE5=My Guy
TTITLE6=Try Me
TTITLE7=Save the last dance for me
TTITLE8=Pride and joy
TTITLE9=Baby its you
TTITLE10=When a man loves a woman
TTITLE11=Only you
TTITLE12=Unchain my heart
TTITLE13=Soul man
TTITLE14=Youve really got a hold on me
TTITLE15=love is like a heat wave
TTITLE16=get ready
TTITLE17=up tight
TTITLE18=Ive been lovin you too long
TTITLE19=You make me feel like a natural woman
EXTD=
EXTT0=
EXTT1=
EXTT2=
EXTT3=
EXTT4=
EXTT5=
EXTT6=
EXTT7=
EXTT8=
EXTT9=
EXTT10=
EXTT11=
EXTT12=
EXTT13=
EXTT14=
EXTT15=
EXTT16=
EXTT17=
EXTT18=
EXTT19=
PLAYORDER=
